<svg id="Layer_1" data-name="Layer 1" xmlns="http://www.w3.org/2000/svg" viewBox="0 0 364.53 364.53"><defs><style>.cls-1{fill:#1c3035;opacity:0.24;}.cls-2{fill:#d4e7e8;}</style></defs><title>3 copy</title><path class="cls-1" d="M182.27,0c75.81,0,137.26,81.6,137.26,182.27S258.08,364.53,182.27,364.53A182.27,182.27,0,0,0,182.27,0Z"/><path class="cls-2" d="M319.53,182.27C319.53,81.6,258.08,0,182.27,0A183.47,183.47,0,0,0,150,2.85q-4.49.79-8.9,1.82-6.61,1.53-13,3.52-4.29,1.34-8.47,2.87c-1.4.51-2.79,1-4.17,1.58q-4.14,1.63-8.17,3.46a182,182,0,0,0-26.9,15q-1.81,1.23-3.61,2.5-3.57,2.53-7,5.24a182.29,182.29,0,0,0,0,286.79q3.44,2.7,7,5.24,1.8,1.28,3.61,2.5a181.13,181.13,0,0,0,26.9,15q4,1.83,8.17,3.46c1.38.54,2.77,1.07,4.17,1.58q4.19,1.53,8.47,2.87,6.42,2,13,3.52,4.41,1,8.9,1.82a182.53,182.53,0,0,0,32.27,2.85C258.08,364.53,319.53,282.93,319.53,182.27Z"/></svg>