<svg id="Layer_1" data-name="Layer 1" xmlns="http://www.w3.org/2000/svg" viewBox="0 0 364.53 364.53"><defs><style>.cls-1{fill:#1c3035;opacity:0.24;}.cls-2{fill:#d4e7e8;}</style></defs><title>30 copy</title><path class="cls-1" d="M16.09,182.27C16.09,81.6,90.49,0,182.27,0h0a182.27,182.27,0,1,0,0,364.53h0C90.49,364.53,16.09,282.93,16.09,182.27Z"/><path class="cls-2" d="M353.47,119.6a179.28,179.28,0,0,0-8.88-20.31,182.82,182.82,0,0,0-18.93-29.55q-2.71-3.45-5.57-6.75A183.12,183.12,0,0,0,273,24.15q-7.64-4.39-15.71-8c-4-1.82-8.16-3.51-12.35-5q-4.19-1.53-8.46-2.87a181.86,181.86,0,0,0-21.94-5.34c-1.5-.27-3-.52-4.51-.75A184,184,0,0,0,182.27,0C90.49,0,16.09,81.6,16.09,182.27s74.4,182.26,166.18,182.26a184,184,0,0,0,27.75-2.1c1.51-.23,3-.48,4.51-.75a180,180,0,0,0,21.94-5.34q4.28-1.33,8.46-2.87,6.28-2.3,12.35-5,8.07-3.65,15.71-8.05a182.85,182.85,0,0,0,47.1-38.83q2.87-3.32,5.57-6.76a182.82,182.82,0,0,0,18.93-29.55,179.28,179.28,0,0,0,8.88-20.31,183.06,183.06,0,0,0,0-125.33Z"/></svg>