<svg id="Layer_1" data-name="Layer 1" xmlns="http://www.w3.org/2000/svg" viewBox="0 0 364.53 364.53"><defs><style>.cls-1{fill:#1c3035;opacity:0.24;}.cls-2{fill:#d4e7e8;}</style></defs><title>16 copy</title><path class="cls-1" d="M339.63,182.27C339.63,81.6,269.18,0,182.27,0h0a182.27,182.27,0,1,0,0,364.53h0C269.18,364.53,339.63,282.93,339.63,182.27Z"/><path class="cls-2" d="M351.89,115.43a182,182,0,0,0-15.2-30q-2-3.14-4.05-6.18c-2.9-4.21-6-8.31-9.19-12.26l-.78-.94c-2.64-3.19-5.39-6.3-8.25-9.3q-3-3.21-6.25-6.28a183.09,183.09,0,0,0-23.58-19l-.42-.29A181.84,181.84,0,0,0,215.51,3Q209.84,2,204,1.3c-4.45-.53-9-.9-13.5-1.1C187.93.08,185.32,0,182.68,0h-.41c86.91,0,157.36,81.6,157.36,182.27S269.18,364.53,182.27,364.53h.41c2.64,0,5.25-.08,7.86-.19,4.54-.21,9.05-.58,13.5-1.11q5.79-.69,11.47-1.73a181.33,181.33,0,0,0,68.66-28.1l.42-.28a184.21,184.21,0,0,0,26.56-22c1.1-1.11,2.2-2.23,3.27-3.37q4.29-4.5,8.25-9.3l.78-.94q4.85-5.93,9.19-12.26,2.08-3,4.05-6.18a182.6,182.6,0,0,0,15.2-163.67Z"/></svg>