<?xml version="1.0" encoding="utf-8"?>
<!-- Generator: Adobe Illustrator 24.0.1, SVG Export Plug-In . SVG Version: 6.00 Build 0)  -->
<svg version="1.1" id="Layer_1" xmlns="http://www.w3.org/2000/svg" xmlns:xlink="http://www.w3.org/1999/xlink" x="0px" y="0px"
	 viewBox="0 0 364.5 364.5" style="enable-background:new 0 0 364.5 364.5;" xml:space="preserve">
<style type="text/css">
	.st0{opacity:0.24;fill:#1C3035;enable-background:new    ;}
	.st1{fill:#D4E7E8;}
</style>
<title>16 copy</title>
<path class="st0" d="M180.9,364.5L180.9,364.5c0.9,0,1.8,0,2.7,0c100.7-0.7,181.7-83,180.9-183.6S281.6-0.7,180.9,0l0,0
	C94,0,23.5,81.6,23.5,182.3C23.5,282.9,94,364.5,180.9,364.5z"/>
<path class="st1" d="M11.3,115.4C-9.9,169.3-4.2,230,26.5,279.1c1.3,2.1,2.7,4.2,4,6.2c2.9,4.2,6,8.3,9.2,12.3l0.8,0.9
	c2.6,3.2,5.4,6.3,8.3,9.3c1.1,1.1,2.2,2.3,3.3,3.4c8.1,8.1,17,15.5,26.6,22l0.4,0.3c20.7,14,44.1,23.6,68.7,28.1
	c3.8,0.7,7.6,1.3,11.5,1.7c4.4,0.5,9,0.9,13.5,1.1c2.6,0.1,5.2,0.2,7.9,0.2h0.4c-86.9,0-157.4-81.6-157.4-182.3S94,0,180.9,0l-0.4,0
	c-2.6,0-5.3,0.1-7.8,0.2c-4.5,0.2-9.1,0.6-13.5,1.1c-3.9,0.5-7.7,1-11.5,1.7c-24.6,4.6-48,14.2-68.7,28.2l-0.4,0.3
	c-8.4,5.7-16.3,12-23.6,19c-2.2,2-4.3,4.1-6.3,6.3c-2.9,3-5.6,6.1-8.3,9.3L39.7,67c-3.2,4-6.3,8.1-9.2,12.3c-1.4,2-2.7,4.1-4,6.2
	C20.5,94.9,15.4,105,11.3,115.4L11.3,115.4z"/>
</svg>
