<svg id="Layer_1" data-name="Layer 1" xmlns="http://www.w3.org/2000/svg" viewBox="0 0 364.53 364.53"><defs><style>.cls-1{fill:#1c3035;opacity:0.24;}.cls-2{fill:#d4e7e8;}</style></defs><title>24 copy</title><path class="cls-1" d="M130.43,182.27C130.43,81.6,153.64,0,182.27,0a182.27,182.27,0,1,0,0,364.53C153.64,364.53,130.43,282.93,130.43,182.27Z"/><path class="cls-2" d="M340.38,91.54Q336,83.91,330.9,76.75a182.57,182.57,0,0,0-13.72-17q-5.88-6.47-12.36-12.36-1.62-1.47-3.27-2.9A182.56,182.56,0,0,0,273,24.15q-7.64-4.39-15.72-8c-1.34-.61-2.7-1.2-4.06-1.78q-4.08-1.73-8.28-3.26t-8.46-2.87q-6.42-2-13-3.52-4.41-1-8.9-1.82A183.36,183.36,0,0,0,182.27,0c-28.63,0-51.84,81.6-51.84,182.27s23.21,182.26,51.84,182.26a182.41,182.41,0,0,0,32.26-2.85q4.49-.8,8.9-1.82,6.62-1.51,13-3.52,4.28-1.33,8.46-2.87t8.28-3.26c1.36-.58,2.72-1.17,4.06-1.78q8.09-3.65,15.72-8.05a183.16,183.16,0,0,0,28.56-20.29q1.65-1.44,3.27-2.91,6.46-5.88,12.36-12.36a182.57,182.57,0,0,0,13.72-17q5.09-7.15,9.48-14.79c1.47-2.54,2.87-5.13,4.21-7.75a182.61,182.61,0,0,0,0-165.95Q342.58,95.36,340.38,91.54Z"/></svg>