<svg id="Layer_1" data-name="Layer 1" xmlns="http://www.w3.org/2000/svg" viewBox="0 0 364.53 364.53"><defs><style>.cls-1{fill:#1c3035;opacity:0.24;}.cls-2{fill:#d4e7e8;}</style></defs><title>17 copy</title><path class="cls-1" d="M308.76,182.27C308.76,81.6,252.13,0,182.27,0a182.27,182.27,0,1,0,0,364.53C252.13,364.53,308.76,282.93,308.76,182.27Z"/><path class="cls-2" d="M364.53,182.27a182.34,182.34,0,0,0-8.19-54.2c-1.21-3.89-2.56-7.72-4-11.49-.69-1.77-1.39-3.52-2.12-5.26-2-4.73-4.21-9.36-6.59-13.87-1.05-2-2.12-4-3.24-5.91A183.08,183.08,0,0,0,320.09,63q-1.44-1.66-2.91-3.28-5.88-6.47-12.36-12.36-1.62-1.47-3.27-2.9A182.56,182.56,0,0,0,273,24.15q-7.64-4.39-15.72-8c-1.34-.61-2.7-1.2-4.06-1.78q-4.08-1.73-8.27-3.26t-8.47-2.87Q227.9,5.54,219,3.7q-6.67-1.37-13.52-2.24c-1.52-.19-3-.36-4.58-.52A185,185,0,0,0,182.27,0h0c69.86,0,126.49,81.6,126.49,182.27S252.13,364.53,182.27,364.53h0a185,185,0,0,0,18.63-.94c1.53-.15,3.06-.33,4.58-.52q6.84-.87,13.52-2.24,8.9-1.83,17.47-4.49,4.28-1.33,8.47-2.87t8.27-3.26c1.36-.58,2.72-1.17,4.06-1.78q8.09-3.65,15.72-8.05a183.16,183.16,0,0,0,28.56-20.29q1.65-1.44,3.27-2.91,6.46-5.88,12.36-12.36,1.47-1.62,2.91-3.27A183.16,183.16,0,0,0,340.38,273c1.12-1.94,2.19-3.92,3.24-5.9,2.38-4.52,4.59-9.15,6.59-13.88.73-1.74,1.43-3.49,2.12-5.26,1.45-3.77,2.8-7.6,4-11.48A182.44,182.44,0,0,0,364.53,182.27Z"/></svg>