<svg id="Layer_1" data-name="Layer 1" xmlns="http://www.w3.org/2000/svg" viewBox="0 0 364.53 364.53"><defs><style>.cls-1{fill:#1c3035;opacity:0.24;}.cls-2{fill:#d4e7e8;}</style></defs><title>18 copy</title><path class="cls-1" d="M282.46,182.27C282.46,81.6,237.6,0,182.27,0a182.27,182.27,0,1,0,0,364.53C237.6,364.53,282.46,282.93,282.46,182.27Z"/><path class="cls-2" d="M351.89,115.43c-1.63-4.13-3.41-8.2-5.33-12.18q-1.92-4-4-7.86a182.43,182.43,0,0,0-14.21-22.18q-2.62-3.51-5.41-6.88t-5.73-6.62q-5.88-6.47-12.36-12.36-3.24-2.94-6.62-5.73a182.47,182.47,0,0,0-21.42-15.23Q273,24.1,269.14,22c-2.58-1.4-5.2-2.75-7.85-4s-5.35-2.49-8.08-3.65q-2-.86-4.11-1.68Q245,11,240.72,9.58t-8.56-2.67c-4.32-1.22-8.71-2.3-13.16-3.21S210,2,205.48,1.46A185.18,185.18,0,0,0,182.27,0C237.6,0,282.46,81.6,282.46,182.27S237.6,364.53,182.27,364.53a185.18,185.18,0,0,0,23.21-1.46q6.84-.87,13.52-2.24t13.16-3.21q4.34-1.23,8.56-2.66t8.38-3.07q2.07-.83,4.11-1.68,4.09-1.72,8.08-3.65t7.85-4q3.89-2.1,7.64-4.39a182.47,182.47,0,0,0,21.42-15.23q3.38-2.79,6.62-5.73,6.46-5.88,12.36-12.36,2.94-3.24,5.73-6.62t5.41-6.88a182.43,182.43,0,0,0,14.21-22.18q2.12-3.87,4-7.85,2.88-6,5.33-12.19,1.64-4.14,3.07-8.38a183.31,183.31,0,0,0,0-116.91Q353.52,119.57,351.89,115.43Z"/></svg>