<svg id="Layer_1" data-name="Layer 1" xmlns="http://www.w3.org/2000/svg" viewBox="0 0 364.53 364.53"><defs><style>.cls-1{fill:#1c3035;opacity:0.24;}.cls-2{fill:#d4e7e8;}</style></defs><title>2 copy</title><path class="cls-1" d="M182.27,0h0C274,0,348.44,81.6,348.44,182.27S274,364.53,182.27,364.53h0A182.27,182.27,0,0,0,182.27,0Z"/><path class="cls-2" d="M348.44,182.27C348.44,81.6,274,0,182.27,0a184.06,184.06,0,0,0-27.76,2.1c-1.51.23-3,.48-4.51.75a181.24,181.24,0,0,0-21.93,5.34q-4.29,1.34-8.47,2.87t-8.28,3.26c-1.36.58-2.72,1.17-4.06,1.78q-8.08,3.64-15.72,8A183.28,183.28,0,0,0,44.45,63q-2.87,3.3-5.58,6.75a182.06,182.06,0,0,0,0,225.05q2.72,3.45,5.58,6.76a183,183,0,0,0,47.09,38.83q7.63,4.39,15.72,8.05c1.34.61,2.7,1.2,4.06,1.78q4.09,1.73,8.28,3.26t8.47,2.87A179.39,179.39,0,0,0,150,361.68c1.5.27,3,.52,4.51.75a184.06,184.06,0,0,0,27.76,2.1C274,364.53,348.44,282.93,348.44,182.27Z"/></svg>