<?xml version="1.0" encoding="utf-8"?>
<!-- Generator: Adobe Illustrator 24.0.1, SVG Export Plug-In . SVG Version: 6.00 Build 0)  -->
<svg version="1.1" id="Layer_1" xmlns="http://www.w3.org/2000/svg" xmlns:xlink="http://www.w3.org/1999/xlink" x="0px" y="0px"
	 viewBox="0 0 364.5 364.5" style="enable-background:new 0 0 364.5 364.5;" xml:space="preserve">
<style type="text/css">
	.st0{opacity:0.24;fill:#1C3035;enable-background:new    ;}
	.st1{fill:#D4E7E8;}
</style>
<title>29 copy</title>
<g>
	<path class="st0" d="M182.2,364.5c29.5,0,58.6-7.2,84.8-20.9c89.1-46.8,123.4-157.1,76.5-246.2S186.5-25.9,97.4,20.9
		C123.5,7.1,152.7,0,182.2,0c84.3,0,152.5,81.6,152.5,182.3C334.7,282.9,266.5,364.5,182.2,364.5z"/>
	<path class="st1" d="M-0.1,182.3C0,283,81.6,364.5,182.2,364.5l0,0c84.2,0,152.5-81.6,152.5-182.3S266.5,0,182.2,0
		c-29.6,0-58.7,7.2-84.8,20.9c-1.4,0.7-2.8,1.5-4.2,2.3c-1.1,0.6-2.2,1.2-3.3,1.9c-4.2,2.5-8.2,5.1-12.1,7.8c-3,2.1-5.9,4.3-9,6.7
		s-5.9,4.9-8.8,7.4l-0.5,0.5C21.5,82-0.1,130.9-0.1,182.3C-0.1,182.3-0.1,182.3-0.1,182.3z"/>
</g>
</svg>
