<svg id="Layer_1" data-name="Layer 1" xmlns="http://www.w3.org/2000/svg" viewBox="0 0 364.53 364.53"><defs><style>.cls-1{fill:#1c3035;opacity:0.24;}.cls-2{fill:#d4e7e8;}</style></defs><title>4 copy</title><path class="cls-1" d="M182.27,0C248.39,0,302,81.6,302,182.27S248.39,364.53,182.27,364.53A182.27,182.27,0,0,0,182.27,0Z"/><path class="cls-2" d="M302,182.27C302,81.6,248.39,0,182.27,0A183.47,183.47,0,0,0,150,2.85q-4.49.79-8.9,1.82-6.61,1.53-13,3.52-4.29,1.34-8.47,2.87t-8.28,3.26c-1.36.58-2.72,1.17-4.06,1.78q-8.08,3.64-15.72,8A182,182,0,0,0,63,44.45q-1.66,1.42-3.28,2.9-6.47,5.88-12.36,12.36a184.21,184.21,0,0,0-13.72,17q-5.09,7.16-9.48,14.79c-1.46,2.55-2.87,5.13-4.21,7.75a182.61,182.61,0,0,0,0,166c1.34,2.62,2.75,5.21,4.21,7.75q4.38,7.63,9.48,14.79a184.21,184.21,0,0,0,13.72,17q5.88,6.46,12.36,12.36,1.62,1.47,3.28,2.91a182.61,182.61,0,0,0,28.55,20.29q7.63,4.39,15.72,8.05c1.34.61,2.7,1.2,4.06,1.78q4.09,1.73,8.28,3.26t8.47,2.87q6.42,2,13,3.52,4.41,1,8.9,1.82a182.53,182.53,0,0,0,32.27,2.85C248.39,364.53,302,282.93,302,182.27Z"/></svg>