<svg id="Layer_1" data-name="Layer 1" xmlns="http://www.w3.org/2000/svg" viewBox="0 0 364.53 364.53"><defs><style>.cls-1{fill:#1c3035;opacity:0.24;}.cls-2{fill:#d4e7e8;}</style></defs><title>27 copy</title><path class="cls-1" d="M62.53,182.27C62.53,81.6,116.14,0,182.27,0a182.27,182.27,0,1,0,0,364.53C116.14,364.53,62.53,282.93,62.53,182.27Z"/><path class="cls-2" d="M342.53,95.39q-2.1-3.89-4.39-7.64t-4.74-7.39a183,183,0,0,0-19.2-23.85q-3-3.16-6.18-6.18-4.75-4.53-9.82-8.71a182.47,182.47,0,0,0-21.42-15.23Q273,24.1,269.14,22c-2.58-1.4-5.2-2.75-7.85-4q-6-2.88-12.19-5.33Q245,11,240.72,9.58A180.91,180.91,0,0,0,219,3.7,183.69,183.69,0,0,0,182.27,0h0C116.14,0,62.53,81.6,62.53,182.27s53.61,182.26,119.74,182.26h0A181.87,181.87,0,0,0,240.72,355q4.25-1.44,8.38-3.07,6.21-2.44,12.19-5.33,4-1.92,7.85-4t7.64-4.39a182.47,182.47,0,0,0,21.42-15.23q5.07-4.17,9.82-8.71,3.17-3,6.18-6.18a183,183,0,0,0,19.2-23.85q2.46-3.63,4.74-7.39t4.39-7.64a182.53,182.53,0,0,0,0-173.75Z"/></svg>