<?xml version="1.0" encoding="utf-8"?>
<!-- Generator: Adobe Illustrator 24.0.1, SVG Export Plug-In . SVG Version: 6.00 Build 0)  -->
<svg version="1.1" id="Layer_1" xmlns="http://www.w3.org/2000/svg" xmlns:xlink="http://www.w3.org/1999/xlink" x="0px" y="0px"
	 viewBox="0 0 364.5 364.5" style="enable-background:new 0 0 364.5 364.5;" xml:space="preserve">
<style type="text/css">
	.st0{fill:#D4E7E8;}
	.st1{opacity:0.24;fill:#1C3035;enable-background:new    ;}
</style>
<title>29 copy</title>
<path class="st0" d="M353.5,119.6c-5.6-15.2-13.2-29.6-22.6-42.8c-1.7-2.4-3.4-4.7-5.2-7c-1.8-2.3-3.7-4.5-5.6-6.8
	c-1-1.1-1.9-2.2-2.9-3.3c-3.9-4.3-8-8.4-12.4-12.4c-1.1-1-2.2-1.9-3.3-2.9c-2.2-1.9-4.5-3.8-6.8-5.6s-4.6-3.6-7-5.2
	c-8.4-5.9-17.2-11.2-26.5-15.6c-2.7-1.3-5.4-2.5-8.1-3.6c-1.3-0.6-2.7-1.1-4.1-1.7c-2.7-1.1-5.5-2.1-8.4-3.1
	c-7.1-2.4-14.4-4.4-21.7-5.9C206.9,1.2,194.6,0,182.3,0l0,0C106.5,0,37.4,81.6,37.4,182.3s69,182.3,144.8,182.3l0,0
	c19.9,0,39.6-3.2,58.4-9.5c2.8-1,5.6-2,8.4-3.1c1.4-0.6,2.8-1.1,4.1-1.7c2.7-1.1,5.4-2.4,8.1-3.6c9.3-4.5,18.1-9.7,26.5-15.7
	c2.4-1.7,4.7-3.4,7-5.2c2.3-1.8,4.5-3.7,6.8-5.6c1.1-1,2.2-1.9,3.3-2.9c4.3-3.9,8.4-8,12.4-12.4c1-1.1,2-2.2,2.9-3.3
	c1.9-2.2,3.8-4.5,5.6-6.8c1.8-2.3,3.5-4.6,5.2-7C365.6,238.9,374,176,353.5,119.6z"/>
<g>
	<path class="st1" d="M253.2,14.3C253.2,14.3,253.2,14.3,253.2,14.3c0.1,0.1,0.2,0.1,0.3,0.1c0.9,0.4,1.8,0.8,2.7,1.2
		c-1.1-0.5-2.2-1-3.3-1.4C252.9,14.2,253,14.3,253.2,14.3z"/>
	<path class="st1" d="M265.6,20.1c0.5,0.3,1,0.5,1.5,0.8c-0.6-0.3-1.2-0.6-1.9-0.9C265.3,20,265.5,20.1,265.6,20.1z"/>
	<path class="st1" d="M264.4,19.5c-0.6-0.3-1.2-0.6-1.8-0.9c0.4,0.2,0.9,0.4,1.3,0.7C264,19.3,264.2,19.4,264.4,19.5z"/>
	<path class="st1" d="M252.8,14.2c-0.4-0.2-0.8-0.4-1.3-0.5C252,13.8,252.4,14,252.8,14.2z"/>
	<path class="st1" d="M261.6,18.1c0.3,0.2,0.7,0.3,1,0.5c-0.4-0.2-0.8-0.4-1.2-0.6C261.4,18.1,261.5,18.1,261.6,18.1z"/>
	<path class="st1" d="M248.2,12.3c0.3,0.1,0.6,0.2,0.9,0.3c0.2,0.1,0.5,0.2,0.7,0.3c0.6,0.2,1.1,0.4,1.7,0.7
		c-1.5-0.6-2.9-1.2-4.4-1.8C247.5,12,247.8,12.2,248.2,12.3z"/>
	<path class="st1" d="M257.8,16.4c1,0.5,2,0.9,3,1.4C259.8,17.3,258.8,16.8,257.8,16.4z"/>
	<path class="st1" d="M261.1,17.9c-0.1,0-0.2-0.1-0.3-0.1c0,0,0.1,0,0.1,0C261,17.9,261.1,17.9,261.1,17.9z"/>
	<g>
		<path class="st1" d="M37.4,182.3C37.4,81.7,106.3,0.2,181.9,0V0c-65.4,0.2-128.5,35.6-161,97.5c-46.8,89.1-12.6,199.3,76.5,246.2
			c26.2,13.7,55.3,20.9,84.8,20.9c0,0,0,0-0.1,0C106.4,364.5,37.4,282.9,37.4,182.3z"/>
	</g>
	<path class="st1" d="M246.5,11.7c0.1,0.1,0.3,0.1,0.4,0.1c-0.5-0.2-1-0.4-1.4-0.5C245.8,11.4,246.2,11.5,246.5,11.7z"/>
	<path class="st1" d="M247.1,11.9c-0.1,0-0.1-0.1-0.2-0.1C247,11.8,247,11.9,247.1,11.9z"/>
	<path class="st1" d="M256.1,15.6c0.6,0.2,1.1,0.5,1.7,0.7C257.3,16.1,256.7,15.9,256.1,15.6z"/>
</g>
<path class="st0" d="M353.5,119.6c-5.6-15.2-13.2-29.6-22.6-42.8c-1.7-2.4-3.4-4.7-5.2-7c-1.8-2.3-3.7-4.5-5.6-6.8
	c-1-1.1-1.9-2.2-2.9-3.3c-3.9-4.3-8-8.4-12.4-12.4c-1.1-1-2.2-1.9-3.3-2.9c-2.2-1.9-4.5-3.8-6.8-5.6s-4.6-3.6-7-5.2
	c-8.4-5.9-17.2-11.2-26.5-15.6c-2.7-1.3-5.4-2.5-8.1-3.6c-1.3-0.6-2.7-1.1-4.1-1.7c-2.7-1.1-5.5-2.1-8.4-3.1
	c-7.1-2.4-14.4-4.4-21.7-5.9C206.9,1.2,194.6,0,182.3,0l0,0C106.5,0,37.4,81.6,37.4,182.3s69,182.3,144.8,182.3l0,0
	c19.9,0,39.6-3.2,58.4-9.5c2.8-1,5.6-2,8.4-3.1c1.4-0.6,2.8-1.1,4.1-1.7c2.7-1.1,5.4-2.4,8.1-3.6c9.3-4.5,18.1-9.7,26.5-15.7
	c2.4-1.7,4.7-3.4,7-5.2c2.3-1.8,4.5-3.7,6.8-5.6c1.1-1,2.2-1.9,3.3-2.9c4.3-3.9,8.4-8,12.4-12.4c1-1.1,2-2.2,2.9-3.3
	c1.9-2.2,3.8-4.5,5.6-6.8c1.8-2.3,3.5-4.6,5.2-7C365.6,238.9,374,176,353.5,119.6z"/>
</svg>
