<svg id="Layer_1" data-name="Layer 1" xmlns="http://www.w3.org/2000/svg" viewBox="0 0 364.53 364.53"><defs><style>.cls-1{fill:#1c3035;opacity:0.24;}.cls-2{fill:#d4e7e8;}</style></defs><title>10 copy</title><path class="cls-1" d="M182.27,0C168.31,0,157,81.6,157,182.27s11.32,182.26,25.28,182.26A182.27,182.27,0,0,0,182.27,0Z"/><path class="cls-2" d="M157,182.27C157,81.6,168.31,0,182.27,0a185.22,185.22,0,0,0-23.22,1.46q-6.84.87-13.52,2.24c-4.45.91-8.84,2-13.16,3.21-2.88.82-5.74,1.71-8.56,2.67s-5.62,2-8.38,3.06q-6.21,2.44-12.18,5.33c-2.66,1.28-5.28,2.63-7.86,4s-5.13,2.87-7.64,4.39A182.47,182.47,0,0,0,66.33,41.62Q63,44.41,59.71,47.35q-6.47,5.88-12.36,12.36Q44.41,63,41.62,66.33t-5.41,6.88A182.43,182.43,0,0,0,22,95.39c-1.4,2.58-2.75,5.2-4,7.86q-2.88,6-5.33,12.18-1.63,4.14-3.06,8.38a183.13,183.13,0,0,0,0,116.91Q11,245,12.64,249.1q2.44,6.21,5.33,12.19c1.28,2.65,2.63,5.27,4,7.85a182.43,182.43,0,0,0,14.21,22.18q2.63,3.51,5.41,6.88t5.73,6.62q5.88,6.46,12.36,12.36,3.24,2.94,6.62,5.73a182.47,182.47,0,0,0,21.42,15.23q3.77,2.3,7.64,4.39t7.86,4q6,2.88,12.18,5.33,4.14,1.64,8.38,3.07c2.82,1,5.68,1.84,8.56,2.66q6.48,1.85,13.16,3.21t13.52,2.24a185.22,185.22,0,0,0,23.22,1.46C168.31,364.53,157,282.93,157,182.27Z"/></svg>