<?xml version="1.0" encoding="utf-8"?>
<!-- Generator: Adobe Illustrator 24.0.1, SVG Export Plug-In . SVG Version: 6.00 Build 0)  -->
<svg version="1.1" id="Layer_1" xmlns="http://www.w3.org/2000/svg" xmlns:xlink="http://www.w3.org/1999/xlink" x="0px" y="0px"
	 viewBox="0 0 364.5 364.5" style="enable-background:new 0 0 364.5 364.5;" xml:space="preserve">
<style type="text/css">
	.st0{opacity:0.24;fill:#1C3035;enable-background:new    ;}
	.st1{fill:#D4E7E8;}
</style>
<title>17 copy</title>
<path class="st0" d="M180.9,364.5c0.9,0,1.8,0,2.7,0c100.7-0.7,181.7-83,180.9-183.6S281.6-0.7,180.9,0C111,0,54.4,81.6,54.4,182.3
	C54.4,282.9,111,364.5,180.9,364.5z"/>
<path class="st1" d="M6.8,236.5c1.2,3.9,2.5,7.7,4,11.5c0.7,1.8,1.4,3.5,2.1,5.3c2,4.7,4.2,9.4,6.6,13.9c1,2,2.1,4,3.2,5.9
	c5.8,10.1,12.6,19.7,20.3,28.6c1,1.1,1.9,2.2,2.9,3.3c3.9,4.3,8.1,8.4,12.4,12.4c1.1,1,2.2,2,3.3,2.9c8.8,7.7,18.4,14.5,28.6,20.3
	c5.1,2.9,10.3,5.6,15.7,8c1.3,0.6,2.7,1.2,4.1,1.8c2.7,1.1,5.5,2.2,8.3,3.3s5.6,2,8.5,2.9c5.7,1.8,11.5,3.3,17.5,4.5
	c4.5,0.9,9,1.7,13.5,2.2c1.5,0.2,3.1,0.4,4.6,0.5c6.2,0.6,12.4,0.9,18.6,0.9l0,0c-69.9,0-126.5-81.6-126.5-182.3S111,0,180.9,0l0,0
	c-6.2,0-12.4,0.3-18.6,0.9c-1.6,0.2-3.1,0.3-4.6,0.5c-4.6,0.6-9.1,1.3-13.5,2.2c-5.9,1.2-11.8,2.7-17.5,4.5
	c-2.9,0.9-5.7,1.9-8.5,2.9s-5.6,2.1-8.3,3.3c-1.4,0.6-2.7,1.2-4.1,1.8c-5.4,2.4-10.6,5.1-15.7,8C80,30,70.5,36.8,61.6,44.5
	c-1.1,1-2.2,1.9-3.3,2.9c-4.3,3.9-8.4,8-12.4,12.4c-1,1.1-2,2.2-2.9,3.3c-7.7,8.8-14.5,18.4-20.3,28.5c-1.1,1.9-2.2,3.9-3.2,5.9
	c-2.4,4.5-4.6,9.1-6.6,13.9c-0.7,1.7-1.4,3.5-2.1,5.3c-1.4,3.8-2.8,7.6-4,11.5c-5.4,17.6-8.2,35.8-8.2,54.2
	C-1.4,200.6,1.4,218.9,6.8,236.5z"/>
</svg>
