<svg id="Layer_1" data-name="Layer 1" xmlns="http://www.w3.org/2000/svg" viewBox="0 0 364.53 364.53"><defs><style>.cls-1{fill:#1c3035;opacity:0.24;}.cls-2{fill:#d4e7e8;}</style></defs><title>19 copy</title><path class="cls-1" d="M265.45,182.27C265.45,81.6,228.21,0,182.27,0a182.27,182.27,0,1,0,0,364.53C228.21,364.53,265.45,282.93,265.45,182.27Z"/><path class="cls-2" d="M360.83,145.53q-1.36-6.67-3.21-13.16-2.46-8.66-5.73-16.94A182.34,182.34,0,0,0,187,.06c-1.56,0-3.13-.06-4.7-.06,45.94,0,83.18,81.6,83.18,182.27s-37.24,182.26-83.18,182.26c1.57,0,3.14,0,4.7-.06A182.34,182.34,0,0,0,351.89,249.1q3.27-8.28,5.73-16.94,1.85-6.48,3.21-13.16t2.24-13.52a185.3,185.3,0,0,0,0-46.43Q362.2,152.21,360.83,145.53Z"/></svg>