<svg id="Layer_1" data-name="Layer 1" xmlns="http://www.w3.org/2000/svg" viewBox="0 0 364.53 364.53"><defs><style>.cls-1{fill:#1c3035;opacity:0.24;}.cls-2{fill:#d4e7e8;}</style></defs><title>12 copy</title><path class="cls-1" d="M182.27,0C136.33,0,99.09,81.6,99.09,182.27s37.24,182.26,83.18,182.26A182.27,182.27,0,0,0,182.27,0Z"/><path class="cls-2" d="M99.09,182.27C99.09,81.6,136.33,0,182.27,0q-2.37,0-4.71.06A182.34,182.34,0,0,0,12.64,115.43q-3.25,8.28-5.73,16.94c-1.22,4.32-2.3,8.71-3.21,13.16s-1.66,9-2.24,13.52a185.3,185.3,0,0,0,0,46.43Q2.33,212.32,3.7,219c.91,4.45,2,8.84,3.21,13.16q2.46,8.66,5.73,16.94A182.34,182.34,0,0,0,177.56,364.47q2.34.06,4.71.06C136.33,364.53,99.09,282.93,99.09,182.27Z"/></svg>