<svg id="Layer_1" data-name="Layer 1" xmlns="http://www.w3.org/2000/svg" xmlns:xlink="http://www.w3.org/1999/xlink" viewBox="0 0 775.92 267.86">
   <defs>
       <style type="text/css">@import url('https://fonts.googleapis.com/css2?family=Montserrat:ital,wght@0,100;0,200;0,300;0,400;0,500;0,600;0,700;0,800;0,900;1,100;1,200;1,300;1,400;1,500;1,600;1,700;1,800;1,900');</style>
      <style type="text/css">@font-face {font-family: "Hafs"; src: url("../../hafs.otf");font-weight: normal;}</style>
      <linearGradient id="linear-gradient" x1="2595.09" y1="-1115.81" x2="2595" y2="-891.49" gradientTransform="translate(-1088.76 2477.11) rotate(-36.02)" gradientUnits="userSpaceOnUse">
         <stop offset="0" stop-color="#083640"/>
         <stop offset="0.81" stop-color="#083640" stop-opacity="0"/>
      </linearGradient>
      <linearGradient id="linear-gradient-2" x1="272.95" y1="75.53" x2="422.19" y2="75.53" gradientUnits="userSpaceOnUse">
         <stop id="stop1" offset="0" stop-color="#2c7291"/>
         <stop id="stop2" offset="1" stop-color="#1f5260"/>
      </linearGradient>
   </defs>
   <rect id="s1" fill="#2c7291" x="386.98" y="38.44" width="388.94" height="108.21"/>
   <path id="s2" fill="url(#linear-gradient)" d="M429.85,60.54h0a54.44,54.44,0,1,0-88.06,64h0l91.76,143.29L537.88,192Z"/>
   <path id="s3" fill="url(#linear-gradient-2)" d="M408.39,43.19l0,0-.52-.22-1.24-.52L316,4.41,291.09,132.8,378,146H378l.19,0h0A54.11,54.11,0,0,0,408.39,43.19Z"/>
   <path id="s4" fill="#1f5260" d="M294.07,132.8l27.2-122.46a65.77,65.77,0,0,0-27.35-5.93H66a66,66,0,0,0,0,132H293.92c.7,0,26.65,0,27.35-.06Z"/>
   <path id="s1" fill="#2c7291" d="M358.67,66.42A66.4,66.4,0,0,0,294.07.05V0H66.42a66.42,66.42,0,1,0,0,132.83c.39,0,.77,0,1.16,0H291.09c.39,0,.77,0,1.16,0l1.17,0h.65A66.41,66.41,0,0,0,358.67,66.42Z"/>
   <text id="tr" text-anchor="middle" dominant-baseline="middle" x="180" y="75" font-size="5em" fill="white" font-weight="bold" class="text" opacity="1" style="font-family: Montserrat, sans-serif">ÖĞLE</text> 
   <text id="ar" text-anchor="middle" dominant-baseline="middle" x="180" y="75" font-size="5em" fill="white" font-weight="bold" class="text" opacity="0" style="font-family: Hafs">الظهر</text> 
   <text id="de" text-anchor="middle" dominant-baseline="middle" x="180" y="75" font-size="5em" fill="white" font-weight="bold" class="text" opacity="0" style="font-family: Montserrat, sans-serif; font-size: 3.7em; letter-spacing: 1px;">MITTAGS</text> 
   <text text-anchor="middle" x="535" y="115" font-size="4.5em" fill="white" font-weight="normal" class="hour1 time" style="font-family: Montserrat, sans-serif">0</text> 
   <text text-anchor="middle" x="582" y="115" font-size="4.5em" fill="white" font-weight="normal" class="hour2 time" style="font-family: Montserrat, sans-serif">0</text> 
   <text x="610" y="110" font-size="4.5em" fill="white" font-weight="normal" class="time" style="font-family: Montserrat, sans-serif">:</text> 
   <text text-anchor="middle" x="653" y="115" font-size="4.5em" fill="white" font-weight="normal" class="minute1 time" style="font-family: Montserrat, sans-serif">0</text> 
   <text text-anchor="middle" x="701" y="115" font-size="4.5em" fill="white" font-weight="normal" class="minute2 time" style="font-family: Montserrat, sans-serif">0</text>
</svg>